<svg version="1.2" xmlns="http://www.w3.org/2000/svg" viewBox="0 0 144 48" width="144" height="48">
	<style>
		.s0 { fill: #f2f2f2;stroke: #f2f2f2;stroke-miterlimit:10;stroke-width: 2.6 } 
		.s1 { fill: #f2f2f2 } 
	</style>
	<filter id="f0">
		<feFlood flood-color="#000000" flood-opacity="1" />
		<feBlend mode="normal" in2="SourceGraphic"/>
		<feComposite in2="SourceAlpha" operator="in" />
	</filter>
	<g id="layer1" filter="url(#f0)">
		<g id="g20736">
			<g id="g25">
				<path id="path27" class="s0" d="m89.08 43.19h18.3"/>
			</g>
			<g id="g29">
				<path id="path31" class="s0" d="m5.13 43.19h18.62"/>
			</g>
			<path id="tspan3477" class="s1" aria-label="Ledeoya"  d="m2.4 33v-24.7h3.4v21.9h12.3v2.8zm35.1-10v1.5h-14.3q0.2 3.1 1.9 4.8 1.8 1.6 4.9 1.6 1.8 0 3.4-0.4 1.7-0.5 3.4-1.3v2.9q-1.7 0.7-3.5 1-1.7 0.4-3.5 0.4-4.6 0-7.2-2.6-2.7-2.6-2.7-7 0-4.5 2.5-7.2 2.6-2.6 6.8-2.6 3.9 0 6.1 2.4 2.2 2.4 2.2 6.5zm-14.2-0.9h11.1q0-2.5-1.4-4-1.4-1.5-3.7-1.5-2.6 0-4.2 1.5-1.6 1.4-1.8 4zm31.5-4.8v-10h3.1v25.7h-3.1v-2.8q-1 1.7-2.5 2.5-1.5 0.8-3.6 0.8-3.4 0-5.6-2.7-2.2-2.7-2.2-7 0-4.4 2.2-7.1 2.2-2.6 5.6-2.6 2.1 0 3.6 0.8 1.5 0.8 2.5 2.4zm-10.6 6.5q0 3.3 1.4 5.2 1.4 1.9 3.9 1.9 2.4 0 3.8-1.9 1.5-1.9 1.5-5.2 0-3.4-1.5-5.3-1.4-1.9-3.8-1.9-2.5 0-3.9 1.9-1.4 1.9-1.4 5.3zm36.3-0.8v1.5h-14.3q0.2 3.1 1.9 4.8 1.8 1.6 4.9 1.6 1.8 0 3.4-0.4 1.7-0.5 3.4-1.3v2.9q-1.7 0.7-3.5 1-1.7 0.4-3.5 0.4-4.6 0-7.2-2.6-2.7-2.6-2.7-7 0-4.5 2.5-7.2 2.6-2.6 6.8-2.6 3.9 0 6.1 2.4 2.2 2.4 2.2 6.5zm-14.2-0.9h11.1q0-2.5-1.4-4-1.4-1.5-3.7-1.5-2.6 0-4.2 1.5-1.6 1.4-1.8 4zm27.3-5.5q-2.5 0-3.9 2-1.5 1.9-1.5 5.2 0 3.3 1.5 5.2 1.4 1.9 3.9 1.9 2.5 0 4-1.9 1.4-1.9 1.4-5.2 0-3.3-1.4-5.2-1.5-2-4-2zm0-2.5q4.1 0 6.4 2.5 2.3 2.6 2.3 7.2 0 4.5-2.3 7.1-2.3 2.6-6.4 2.6-4 0-6.4-2.6-2.3-2.6-2.3-7.1 0-4.6 2.3-7.2 2.4-2.5 6.4-2.5zm29.9 0.4l-8.3 20.2q-1.3 3.3-2.6 4.3-1.2 1-3.3 1h-2.5v-2.5h1.8q1.3 0 2-0.6 0.7-0.6 1.6-2.8l0.5-1.4-7.6-18.2h3.3l5.9 14.5 5.9-14.5zm15.5 9.2h-3.1q-3.8 0-5.2 0.8-1.5 0.9-1.5 2.9 0 1.6 1.1 2.6 1.1 0.9 3 0.9 2.6 0 4.1-1.7 1.6-1.8 1.6-4.8zm3.1-1.3v10.6h-3.1v-2.8q-1.1 1.7-2.7 2.5-1.5 0.8-3.8 0.8-3 0-4.7-1.6-1.7-1.6-1.7-4.3 0-3.1 2.1-4.7 2.2-1.6 6.4-1.6h4.4v-0.3q0-2.1-1.4-3.2-1.4-1.2-4-1.2-1.6 0-3.1 0.4-1.6 0.4-3 1.1v-2.8q1.7-0.6 3.3-0.9 1.6-0.4 3.1-0.4 4.2 0 6.2 2.1 2 2.1 2 6.3z"/>
		</g>
	</g>
</svg>